<?xml version="1.0" encoding="UTF-8"?>
<svg version="1.1" xmlns="http://www.w3.org/2000/svg" width="32" height="32">
<path d="M0 0 C9.97439523 0.22831086 9.97439523 0.22831086 13.63061523 3.32739258 C16.36719752 7.77267015 18.00565816 11.94691237 17.16967773 17.24145508 C16.52901367 17.22985352 15.88834961 17.21825195 15.22827148 17.20629883 C11.34530014 17.16579093 7.69480125 17.15228316 3.85717773 17.80395508 C-1.74840904 18.4690247 -7.2291326 17.78893978 -12.83032227 17.24145508 C-13.15763614 12.48495773 -12.4682585 9.92239621 -9.89282227 5.92895508 C-9.34754883 5.06657227 -8.80227539 4.20418945 -8.24047852 3.31567383 C-5.80735378 -0.26324372 -4.33548723 0.02140864 0 0 Z M-5.83032227 7.24145508 C-6.16032227 8.23145508 -6.49032227 9.22145508 -6.83032227 10.24145508 C-5.18032227 9.91145508 -3.53032227 9.58145508 -1.83032227 9.24145508 C-3.15032227 8.58145508 -4.47032227 7.92145508 -5.83032227 7.24145508 Z M-6.83032227 13.24145508 C-4.85032227 14.23145508 -4.85032227 14.23145508 -2.83032227 15.24145508 C-2.17032227 14.58145508 -1.51032227 13.92145508 -0.83032227 13.24145508 C-2.81032227 13.24145508 -4.79032227 13.24145508 -6.83032227 13.24145508 Z M1.16967773 13.24145508 C1.16967773 13.57145508 1.16967773 13.90145508 1.16967773 14.24145508 C3.14967773 14.24145508 5.12967773 14.24145508 7.16967773 14.24145508 C7.16967773 13.91145508 7.16967773 13.58145508 7.16967773 13.24145508 C5.18967773 13.24145508 3.20967773 13.24145508 1.16967773 13.24145508 Z " fill="#312E2E" transform="translate(13.830322265625,6.758544921875)"/>
<path d="M0 0 C2.86688248 0.09096556 5.70300515 0.23767988 8.5625 0.4375 C9.36880859 0.48970703 10.17511719 0.54191406 11.00585938 0.59570312 C13.00421738 0.72577376 15.00215386 0.86229056 17 1 C16.05016642 2.50539661 15.08988109 4.00420347 14.125 5.5 C13.59132813 6.3353125 13.05765625 7.170625 12.5078125 8.03125 C12.01023437 8.6809375 11.51265625 9.330625 11 10 C10.34 10 9.68 10 9 10 C9 10.66 9 11.32 9 12 C6.04590299 10.62845496 3.55991624 9.01136276 1 7 C1.66 7 2.32 7 3 7 C1.84826645 4.53199953 0.95216435 2.95216435 -1 1 C-0.67 0.67 -0.34 0.34 0 0 Z " fill="#DB1F1F" transform="translate(8,7)"/>
<path d="M0 0 C0.33 0.66 0.66 1.32 1 2 C3.25190053 2.50758392 3.25190053 2.50758392 5.875 2.6875 C7.20144531 2.81705078 7.20144531 2.81705078 8.5546875 2.94921875 C11.14021145 3.13984976 11.14021145 3.13984976 14 2 C15.78967404 1.90580663 17.58285563 1.87009002 19.375 1.875 C20.77878906 1.87113281 20.77878906 1.87113281 22.2109375 1.8671875 C24.90729747 1.99558559 27.37271509 2.39811291 30 3 C30 3.99 30 4.98 30 6 C29.35933594 5.98839844 28.71867187 5.97679687 28.05859375 5.96484375 C24.1756224 5.92433585 20.52512351 5.91082808 16.6875 6.5625 C11.08191322 7.22756962 5.60118967 6.5474847 0 6 C0 4.02 0 2.04 0 0 Z " fill="#AE9596" transform="translate(1,18)"/>
<path d="M0 0 C0.33 0.66 0.66 1.32 1 2 C3.12576782 2.46651207 3.12576782 2.46651207 5.5625 2.625 C6.38878906 2.69976563 7.21507812 2.77453125 8.06640625 2.8515625 C8.70449219 2.90054687 9.34257812 2.94953125 10 3 C10 3.99 10 4.98 10 6 C6.7 6 3.4 6 0 6 C0 4.02 0 2.04 0 0 Z " fill="#8E8E8E" transform="translate(1,18)"/>
<path d="M0 0 C1.9375 0.75 1.9375 0.75 4 2 C4.75 4.125 4.75 4.125 5 6 C4.01 6.66 3.02 7.32 2 8 C2 6.68 2 5.36 2 4 C0.515 6.475 0.515 6.475 -1 9 C-2 7 -2 7 -2 4 C-1 1.8125 -1 1.8125 0 0 Z " fill="#4F4F4F" transform="translate(23,9)"/>
<path d="M0 0 C2.86688248 0.09096556 5.70300515 0.23767988 8.5625 0.4375 C9.36880859 0.48970703 10.17511719 0.54191406 11.00585938 0.59570312 C13.00421738 0.72577376 15.00215386 0.86229056 17 1 C13.7192776 3.18714826 12.78850619 3.22647784 9 3.125 C8.13375 3.10695313 7.2675 3.08890625 6.375 3.0703125 C5.199375 3.03550781 5.199375 3.03550781 4 3 C3.01 3 2.02 3 1 3 C0.34 2.34 -0.32 1.68 -1 1 C-0.67 0.67 -0.34 0.34 0 0 Z " fill="#C94444" transform="translate(8,7)"/>
<path d="M0 0 C1.98 0.495 1.98 0.495 4 1 C4.33 2.32 4.66 3.64 5 5 C3.68 5.33 2.36 5.66 1 6 C-0.0625 4.125 -0.0625 4.125 -1 2 C-0.67 1.34 -0.34 0.68 0 0 Z " fill="#383838" transform="translate(6,9)"/>
<path d="M0 0 C2.64 0.33 5.28 0.66 8 1 C7.34 1.66 6.68 2.32 6 3 C3.875 2.625 3.875 2.625 2 2 C1.67 2.99 1.34 3.98 1 5 C0.01 4.67 -0.98 4.34 -2 4 C-1.34 2.68 -0.68 1.36 0 0 Z " fill="#F4AAAE" transform="translate(13,20)"/>
<path d="M0 0 C0.33 0.66 0.66 1.32 1 2 C2.98 2 4.96 2 7 2 C7 1.34 7 0.68 7 0 C7.99 0.33 8.98 0.66 10 1 C10 1.66 10 2.32 10 3 C6.04 3 2.08 3 -2 3 C-1.34 2.01 -0.68 1.02 0 0 Z " fill="#060606" transform="translate(4,16)"/>
<path d="M0 0 C0.33 0.66 0.66 1.32 1 2 C2.65 2 4.3 2 6 2 C6 2.66 6 3.32 6 4 C5.01 4 4.02 4 3 4 C3 4.66 3 5.32 3 6 C2.01 6 1.02 6 0 6 C0 4.02 0 2.04 0 0 Z " fill="#999999" transform="translate(1,18)"/>
<path d="M0 0 C0 0.66 0 1.32 0 2 C-0.99 2 -1.98 2 -3 2 C-3.33 2.66 -3.66 3.32 -4 4 C-5.32 3.01 -6.64 2.02 -8 1 C-5.29120665 -0.35439668 -2.99066732 -0.06501451 0 0 Z " fill="#CB6464" transform="translate(17,13)"/>
</svg>
